<svg xmlns="http://www.w3.org/2000/svg" width="236.516" height="93.465" viewBox="0 0 236.516 93.465">
  <g id="Group_344" data-name="Group 344" transform="translate(4410.732 3447.27)">
    <g id="g2268" transform="translate(-4345.573 -3382.111)">
      <path id="path2270" d="M0,0-26.444,26.444-52.888,0A37.154,37.154,0,0,1-63.841-26.444,37.151,37.151,0,0,1-52.888-52.887,37.153,37.153,0,0,1-26.444-63.841,37.151,37.151,0,0,1,0-52.887,37.152,37.152,0,0,1,10.953-26.444,37.155,37.155,0,0,1,0,0M.932-53.819a38.46,38.46,0,0,0-27.375-11.34,38.461,38.461,0,0,0-27.376,11.34A38.461,38.461,0,0,0-65.158-26.444,38.463,38.463,0,0,0-53.819.932l27.376,27.375L.932.932A38.464,38.464,0,0,0,12.27-26.444,38.462,38.462,0,0,0,.932-53.819" fill="#fff"/>
    </g>
    <g id="g2272" transform="translate(-4369.429 -3383.167)">
      <path id="path2274" d="M0,0-6.253-.168a.806.806,0,0,0-.825.782h0A.806.806,0,0,0-6.3,1.44l6.253.168A.807.807,0,0,0,.782.826h0A.805.805,0,0,0,0,0" fill="#fbed25"/>
    </g>
    <g id="g2276" transform="translate(-4370.79 -3380.45)">
      <path id="path2278" d="M0,0-3.681-.1a.805.805,0,0,0-.825.782h0a.807.807,0,0,0,.782.826l3.681.1A.806.806,0,0,0,.782.826h0A.807.807,0,0,0,0,0" fill="#fbed25"/>
    </g>
    <g id="g2280" transform="translate(-4370.998 -3385.962)">
      <path id="path2282" d="M0,0-2.967-.08c.06-2.131.205-7.756.209-12.417a14.692,14.692,0,0,0,1.605.128,14.657,14.657,0,0,0,1.611-.042C.212-7.756.054-2.131,0,0M-7.266-16.429a3.719,3.719,0,0,1-.858-2.353,2.229,2.229,0,0,1,.089-.584A1.773,1.773,0,0,1-7.01-20.44a1.874,1.874,0,0,1,.885-.152,1.435,1.435,0,0,1,.784.306,2.8,2.8,0,0,1,.847,2.037c.074.88.114,2.2.131,3.748a6.075,6.075,0,0,1-2.9-1.928M2.5-18.061a2.794,2.794,0,0,1,.955-1.989,1.439,1.439,0,0,1,.8-.263,1.875,1.875,0,0,1,.876.2A1.774,1.774,0,0,1,6.1-18.989v0a2.245,2.245,0,0,1,.057.588,3.715,3.715,0,0,1-.984,2.3,6.072,6.072,0,0,1-3,1.769c.1-1.542.21-2.861.333-3.735M3,.08,1.595.043c.055-2.181.219-8.017.475-12.7L2.26-12.7h0a7.784,7.784,0,0,0,4.11-2.344,5.324,5.324,0,0,0,1.386-3.313,3.791,3.791,0,0,0-.1-1.009h0a3.385,3.385,0,0,0-1.819-2.183,3.466,3.466,0,0,0-1.622-.363,3.023,3.023,0,0,0-1.677.558A4.305,4.305,0,0,0,.917-18.279C.781-17.3.659-15.788.551-14.028a12.79,12.79,0,0,1-1.66.058,12.829,12.829,0,0,1-1.654-.147c-.013-1.763-.054-3.283-.138-4.264A4.306,4.306,0,0,0-4.35-21.536a3.025,3.025,0,0,0-1.645-.647,3.462,3.462,0,0,0-1.64.276,3.385,3.385,0,0,0-1.934,2.081,3.84,3.84,0,0,0-.156,1,5.322,5.322,0,0,0,1.207,3.382,7.787,7.787,0,0,0,3.977,2.562h0l.189.055c0,4.685-.147,10.522-.208,12.7L-5.967-.16a.806.806,0,0,0-.826.782h0a.806.806,0,0,0,.782.826l8.967.241A.807.807,0,0,0,3.783.906h0A.806.806,0,0,0,3,.08" fill="#fbed25"/>
    </g>
    <g id="g2284" transform="translate(-4351.821 -3417.093)">
      <path id="path2286" d="M0,0-4.381-2.529V-7.51A1.6,1.6,0,0,0-5.2-8.929l-9.242-5.336a1.6,1.6,0,0,0-1.638,0L-20.2-11.888l-4.117-2.377a1.6,1.6,0,0,0-1.639,0l-9.241,5.336a1.6,1.6,0,0,0-.82,1.419v4.982L-40.394,0a1.6,1.6,0,0,0-.818,1.419V11.863a1.6,1.6,0,0,0,.818,1.419l4.381,2.53v4.6a1.6,1.6,0,0,0,.82,1.42l8.978,4.276V24.128l-8.074-3.754V15.811l2.956-1.706V12.119l-3.817,2.2-4.338-2.5V1.46l4.336-2.5,4.118,2.378V5.974l-3.306,1.909a1.538,1.538,0,0,0-.67-.153,1.533,1.533,0,0,0-1.532,1.533A1.533,1.533,0,0,0-35.012,10.8a1.533,1.533,0,0,0,1.53-1.424l3.741-2.159.431-.249V.344l-.431-.249-4.548-2.626V-7.466l4.148-2.395,3.494,2.017a1.535,1.535,0,0,0,1.53,1.424,1.534,1.534,0,0,0,1.534-1.534,1.534,1.534,0,0,0-1.534-1.533,1.549,1.549,0,0,0-.67.153l-2.634-1.521,3.292-1.9,4.071,2.351V4.2a1.641,1.641,0,0,0-.785,1.4A1.647,1.647,0,0,0-20.2,7.245,1.647,1.647,0,0,0-18.55,5.6a1.641,1.641,0,0,0-.786-1.4V-10.4l4.071-2.351,3.292,1.9-2.634,1.521a1.54,1.54,0,0,0-.67-.153,1.533,1.533,0,0,0-1.532,1.533,1.534,1.534,0,0,0,1.532,1.534,1.534,1.534,0,0,0,1.53-1.424l3.494-2.017L-6.1-7.466v4.935L-10.651.095l-.432.249v6.62l.432.249,3.739,2.159A1.533,1.533,0,0,0-5.382,10.8,1.534,1.534,0,0,0-3.849,9.262,1.534,1.534,0,0,0-5.382,7.729a1.538,1.538,0,0,0-.67.153L-9.359,5.974V1.334L-5.24-1.044l4.335,2.5V11.818l-4.337,2.5-3.567-2.06v1.986l2.7,1.561v4.563l-8.847,4.633V26.99L-5.2,21.834a1.6,1.6,0,0,0,.818-1.42v-4.6L0,13.281a1.6,1.6,0,0,0,.82-1.419V1.419A1.6,1.6,0,0,0,0,0" fill="#fbed25"/>
    </g>
    <g id="g2288" transform="translate(-4248.957 -3447.27)">
      <path id="path2290" d="M1.728,0h12.59A4.278,4.278,0,0,1,18.6,4.278V61.5q0,6.458,3.794,9.766t10.9,3.31a16.665,16.665,0,0,0,12.833-5.327q4.924-5.327,4.924-13.882V4.278A4.278,4.278,0,0,1,55.322,0h12.59a4.278,4.278,0,0,1,4.278,4.278V87.25a4.278,4.278,0,0,1-4.278,4.278H57.662a6.542,6.542,0,0,1-4.439-1.615q-.233-.2-.44-.416a4.449,4.449,0,0,0-5.588-.762,32.509,32.509,0,0,1-17.621,4.729q-14.692,0-23.406-8.636t-8.718-23V4.278A4.278,4.278,0,0,1,1.728,0" transform="translate(2.55)" fill="#fbed25"/>
    </g>
    <g id="g2292" transform="translate(-4320.324 -3447.27)">
      <path id="path2294" d="M10.785,25.9a108.364,108.364,0,0,1,12.153-7.714c6.115-3.37,10.8-6.184,13.937-8.365A30,30,0,0,0,45.293.666c2.352-3.864,3.543-8.711,3.543-14.412A29.1,29.1,0,0,0,44.83-28.907,27.714,27.714,0,0,0,33.567-39.365a35.11,35.11,0,0,0-16.3-3.716A39.517,39.517,0,0,0,3.765-40.806,28.657,28.657,0,0,0-6.854-34.234c-5.622,5.62-8.636,13.243-8.963,22.656a1.781,1.781,0,0,0,1.78,1.843h11.96A5.923,5.923,0,0,0,2.141-11.4a7.249,7.249,0,0,0,2.113-4.048A11.63,11.63,0,0,1,7.077-21.9c2.248-2.385,5.314-3.545,9.373-3.545,4.021,0,7.094,1.051,9.392,3.21a11.161,11.161,0,0,1,3.367,8.612,11.018,11.018,0,0,1-1.39,5.712,15.1,15.1,0,0,1-4.257,4.449c-2.009,1.44-5.056,3.342-9.056,5.65A170.966,170.966,0,0,0-2.445,13.035,41.98,41.98,0,0,0-13.417,26.067c-3.156,5.575-4.674,12.51-4.51,20.612h0a1.78,1.78,0,0,0,1.78,1.744H45.414a1.781,1.781,0,0,0,1.78-1.781V31.4a1.78,1.78,0,0,0-1.78-1.78H11.193a1.783,1.783,0,0,1-1.1-3.187c.225-.177.454-.355.688-.533" transform="translate(17.94 43.081)" fill="#fbed25"/>
    </g>
  </g>
</svg>
